<svg xmlns="http://www.w3.org/2000/svg" width="225" height="79" style="width:100%;height:100%;transform:translate3d(0,0,0)"><defs><clipPath id="a"><path d="M0 0h225v79H0z"/></clipPath><clipPath id="b"><path d="M0 0h463v130H0z"/></clipPath><clipPath id="c"><path d="M0 0h64v63H0z"/></clipPath><clipPath id="d"><path d="M0 0h56v64H0z"/></clipPath><clipPath id="e"><path d="M0 0h17v29H0z"/></clipPath><clipPath id="f"><path d="M0 0h74v76H0z"/></clipPath><clipPath id="g"><path d="M0 0h12v12H0z"/></clipPath><clipPath id="h"><path d="M0 0h41v47H0z"/></clipPath><clipPath id="i"><path d="M0 0h35v58H0z"/></clipPath><clipPath id="j"><path d="M0 0h30v53H0z"/></clipPath><clipPath id="k"><path d="M0 0h12v12H0z"/></clipPath><clipPath id="l"><path d="M0 0h12v12H0z"/></clipPath></defs><g clip-path="url(#a)"><g clip-path="url(#b)" style="display:block" transform="translate(-119.146 -25.367)"><g clip-path="url(#c)" style="display:block" transform="translate(109.541 25.836)"><path fill="#1A1A18" d="m2.797 23.472 2.941-8.63-12.804-36.228 7.208-1.612v-.474h-24.183v.474l5.406 1.707 16.122 44.763h5.31zm7.398-46.47 6.259 1.612L7.065 7.919h1.044l11.285-29.305 4.647-1.612v-.474H10.195v.474z" style="display:block" transform="translate(32.041 31.472)"/></g><g clip-path="url(#d)" style="display:block" transform="translate(159.009 25.183)"><path fill="#1A1A18" d="M-3.509 20.201c-4.078 0-6.449-2.751-6.449-8.441v-.759C-9.958 3.794-6.543.38-.379-.189v-.664h-2.087c-10.242 0-18.493 4.458-18.493 13.562 0 6.543 4.363 11.285 11.096 11.285 5.596 0 9.01-2.94 10.622-4.457v-.475c-1.517.759-3.035 1.139-4.268 1.139zm2.086-44.384c-2.466 0-4.647.19-6.828.569l.095.664c7.397-.095 11.665 4.077 11.665 11.854v27.693c0 4.931 3.034 7.586 8.156 7.586 4.552 0 7.777-1.99 9.294-3.318l-.19-.38c-.948.285-1.802.474-2.561.474-2.75 0-4.077-1.707-4.077-4.552v-27.218c0-8.915-6.354-13.372-15.554-13.372z" style="display:block" transform="translate(27.959 32.183)"/></g><g clip-path="url(#e)" style="display:block" transform="translate(278.776 33.684)"><path fill="#1A1A18" d="M-6.401-13.846v-.474H8.393v.474l-5.595 1.612L-7.35 14.32h-1.043l8.251-26.554-6.259-1.612z" style="display:block" transform="translate(8.393 14.32)"/></g><g clip-path="url(#f)" style="display:block" transform="translate(284.927 19.231)"><path fill="#1A1A18" d="M3.651 19.489c-7.113 2.086-11.57-1.612-11.57-8.061v-34.805h-15.743v.664l5.121 2.845v32.054c0 8.63 5.026 12.045 11.191 12.045 4.267 0 8.25-1.897 11.001-4.173v-.569zm14.51-.758V.142c0-9.389.19-24.373.19-24.373L1.849-21.29v.569L7.54-18.54v42.392l16.122-2.656v-.569l-5.501-1.896z" style="display:block" transform="translate(37.162 38.231)"/></g><g clip-path="url(#g)" style="display:block" transform="translate(212.849 37.343)"><path fill="#1A1A18" d="M5.785.095c0 3.035-2.561 5.69-5.785 5.69-3.13 0-5.785-2.655-5.785-5.69 0-3.319 2.655-5.88 5.785-5.88 3.224 0 5.785 2.561 5.785 5.88z" style="display:block" transform="translate(5.785 5.785)"/></g><g clip-path="url(#h)" style="display:block" transform="translate(201.118 46.103)"><path fill="#1A1A18" d="M.142-.569V.19c0 5.69 2.371 8.44 6.449 8.44 1.233 0 2.751-.379 4.268-1.138v.474C9.247 9.484 5.833 12.424.237 12.424c-6.733 0-11.096-4.742-11.096-11.286 0-9.104 8.251-13.562 18.493-13.562h2.087v.665C3.557-11.19.142-7.777.142-.569z" style="display:block" transform="translate(20.359 23.424)"/></g><g clip-path="url(#i)" style="display:block" transform="translate(220.626 29.047)"><path fill="#1A1A18" d="M11.854 20.959c.759 0 1.613-.189 2.561-.474l.19.379c-1.517 1.328-4.743 3.319-9.294 3.319-5.122 0-8.156-2.654-8.156-7.586v-27.693c0-7.776-4.268-11.95-11.665-11.855l-.095-.663c2.181-.379 4.362-.569 6.828-.569 9.2 0 15.554 4.457 15.554 13.372v27.218c0 2.845 1.327 4.552 4.077 4.552z" style="display:block" transform="translate(17.605 29.183)"/></g><g clip-path="url(#j)" style="display:block" transform="translate(247.592 33.832)"><path fill="#1A1A18" d="m10.053-25.994-7.682 1.612L14.794 9.38l-5.92 17.088H7.83l2.405-8.837H6.733L-9.389-24.287l-5.405-1.707v-.474h24.847v.474z" style="display:block" transform="translate(14.794 26.468)"/></g><g clip-path="url(#k)" style="display:block" transform="translate(257.657 84.981)"><path fill="#1A1A18" d="M5.785.095c0 3.035-2.561 5.69-5.785 5.69-3.13 0-5.785-2.655-5.785-5.69 0-3.319 2.655-5.88 5.785-5.88 3.224 0 5.785 2.561 5.785 5.88z" style="display:block" transform="translate(5.785 5.785)"/></g><g clip-path="url(#l)" style="display:block" transform="matrix(-1 0 0 1 180.081 36.503)"><path fill="#1A1A18" d="M-5.785.095c0-3.319 2.561-5.88 5.785-5.88 3.13 0 5.785 2.561 5.785 5.88 0 3.035-2.655 5.69-5.785 5.69-3.224 0-5.785-2.655-5.785-5.69z" style="display:block" transform="matrix(-1 0 0 1 5.785 5.785)"/></g></g></g></svg>